<svg xmlns="http://www.w3.org/2000/svg" viewBox="0 0 320 320"><polygon points="69.62 244.81 49.96 244.81 76.79 180.06 162.69 180.06 129.47 100.08 104.33 160.5 111.57 160.61 129.44 117.85 152.44 173.22 72.22 173.22 39.73 251.66 74.23 251.66 89.26 214.59 81.86 214.62 69.62 244.81"></polygon><path d="M85.23,160.63l37.4-91.2h13.65l58.49,141.16-.54.51a15.31,15.31,0,0,0-4.85,11.19,15.48,15.48,0,1,0,15.48-15.47,15.23,15.23,0,0,0-3.17.33l-.87.18-60-144.75H118.05L77.46,160.63Zm111,61.66a8.64,8.64,0,1,1,8.64,8.64A8.65,8.65,0,0,1,196.22,222.29Z"></path><path d="M269,227.11l-.77-.22V62.58H235.33V244.81H189.28l-19.13-46.55L170,198H87.3l-2.55,6.85h80.68l19.14,46.55.13.31h57.48V69.43h19.19V226.89l-.78.22a15.49,15.49,0,1,0,8.4,0Zm4.44,14.83a8.64,8.64,0,1,1-8.64-8.64A8.66,8.66,0,0,1,273.43,241.94Z"></path><rect x="90.45" y="238.25" width="80.97" height="8"></rect><polygon points="51.74 152.58 62.04 136.95 62.04 84.52 90.45 84.52 90.45 76.52 54.04 76.52 54.04 134.55 43.74 150.18 43.74 196.66 51.74 196.66 51.74 152.58"></polygon><rect x="164.45" y="76.52" width="61.13" height="8"></rect></svg>