<svg xmlns="http://www.w3.org/2000/svg" viewBox="0 0 320 320"><path d="M100.25,168.49a18.65,18.65,0,1,0,0,37.3c9.76,0,18.65-8.89,18.65-18.65A18.45,18.45,0,0,0,100.25,168.49Zm0,30a11.35,11.35,0,1,1,11.34-11.35C111.59,193,106.08,198.49,100.25,198.49Z"></path><path d="M141.08,186.49a40.83,40.83,0,1,0-40.83,40.83C122.38,227.32,141.08,208.62,141.08,186.49ZM100.25,220a33.52,33.52,0,1,1,33.52-33.52C133.77,204.66,118.42,220,100.25,220Z"></path><polygon points="115.64 139.85 165.7 90.59 154.32 79.57 164.38 69.07 170.1 74.11 174.93 68.62 163.94 58.96 144.01 79.76 155.23 90.64 110.52 134.64 115.64 139.85"></polygon><polygon points="181.28 50.77 214.91 36.02 218.98 47.76 188.18 62.28 175.66 78.97 208.27 110.83 226.39 97.74 239.76 68.04 250.9 72.4 236.7 105.7 228.07 115.11 233.46 120.05 242.93 109.72 260.58 68.35 235.95 58.69 220.53 92.96 208.98 101.3 185.36 78.22 192.94 68.12 228.04 51.57 219.22 26.15 177.04 44.65 168.14 53.82 173.39 58.91 181.28 50.77"></polygon><polygon points="198.06 122.43 149.19 173.25 154.44 178.34 197.97 133.04 208.85 144.67 228.61 124.71 218.18 113.82 212.9 118.88 218.41 124.63 209 134.13 198.06 122.43"></polygon><polygon points="154.44 207.43 238.32 293.85 248.09 293.85 248.31 293.64 159.68 202.34 154.44 207.43"></polygon><polygon points="101.66 243.39 147.39 293.85 157.25 293.85 107.08 238.48 101.66 243.39"></polygon></svg>