<svg id="a" xmlns="http://www.w3.org/2000/svg" viewBox="0 0 320 320"><path d="m79.2,132.2c-5.92,4.48-11.04,9.84-15.24,15.94h-8.56l.54-1.02c4.98-8.06,11.34-15.04,18.92-20.77l4.32,5.85h.02Z"></path><path d="m88.41,127.22h0c-.09.05-.19.1,0,0Z"></path><path d="m55.94,210.48h.4s-.4,0-.4,0Z"></path><path d="m146.37,251.23c-6.74,2.69-13.82,4.3-21.07,4.76l-.85.05V110.94h-7.27v46.67h-28.21l.16-.92c1.57-9.15,3.9-18.26,6.97-27.07l2.71-7.8.37-.12c3.5-1.16,7.07-2.03,10.65-2.61v-7.38c-8.5,1.24-16.7,3.9-24.37,7.94l3.81,7.49-.11.33c-3.31,9.56-5.81,19.47-7.43,29.47l-.11.67h-31.07c-2.2,5.25-3.82,10.75-4.81,16.37-.4,2.31-.71,4.69-.9,7.11h7.29c.17-1.98.43-3.94.77-5.86.57-3.28,1.41-6.59,2.48-9.81l.17-.54h25.06l-.09.88c-1.61,14.58-1.36,29.32.72,43.83l.13.9h-25.44.4c-2.74-7.49-4.22-15.55-4.22-23.96h-7.11c-.1,0,.22,5.9.27,6.44.17,2.13.44,4.25.79,6.36.7,4.14,1.73,8.22,3.09,12.19,1.33,3.9,2.99,7.7,4.94,11.33,1.93,3.61,4.15,7.06,6.62,10.32,2.46,3.24,5.17,6.29,8.12,9.11,2.94,2.82,6.11,5.41,9.46,7.73,3.36,2.34,6.91,4.41,10.6,6.18,3.73,1.79,7.61,3.29,11.59,4.46,4.05,1.19,8.21,2.04,12.4,2.55,4.65.56,9.6.93,14.26.3,4.73-.66,9.47-1.5,14.07-2.83,2.68-.78,5.34-1.69,7.94-2.74l-2.78-6.72h0Zm-55.4-1.95c-13.61-6.8-24.71-17.9-31.5-31.52h23.16l.12.64c1.99,10.07,4.86,20.02,8.57,29.58l.12.3-.47.99Zm26.22,7.19c-4.44-.32-8.78-1.05-12.96-2.16-.81-.33-1.62-.64-2.44-.88l-.36-.1-.15-.33c-4.89-11.01-8.61-22.54-11.04-34.28l-.19-.95h27.15v38.71h0Zm0-45.98h-28.44l-.1-.67c-2.22-14.64-2.47-29.52-.77-44.23l.08-.71h29.23v45.61h0Z"></path><path d="m185.21,183.67v.69-.69s0,0,0,0Z"></path><path d="m229.74,206.19l-.19.43-5.29-3.4.12-.31c3.15-7.92,3.82-16.55,1.95-24.92-2.47-11.13-9.14-20.62-18.76-26.74-1.64-1.03-3.32-1.96-5.04-2.75-8.45-3.92-17.9-4.96-27.14-2.89-11.13,2.48-20.62,9.15-26.74,18.77-6.11,9.6-8.1,21.02-5.62,32.17,1.57,7.07,4.83,13.47,9.46,18.77h0c2.65,3.06,5.76,5.74,9.27,7.97,17.24,10.96,39.93,8.12,53.94-6.75l.23-.24,5.29,3.39-.32.35c-6.83,7.57-15.7,12.74-25.61,14.95-3.58.8-7.18,1.19-10.77,1.19-1.07,0-2.13-.03-3.2-.1-.33-.02-.64-.05-.96-.08-.32-.02-.64-.05-.95-.09-5.78,6.95-12.67,12.75-20.52,17.28l-3.58-6.34c5.9-3.41,11.21-7.62,15.82-12.56-.29-.07-.57-.16-.85-.26-.29-.08-.56-.16-.84-.26-3.84-1.26-7.55-2.99-11.04-5.23-22.77-14.47-29.51-44.75-15.04-67.51,7.01-11.02,17.9-18.66,30.64-21.51,12.75-2.84,25.85-.54,36.87,6.47,11.02,7.02,18.66,17.9,21.5,30.64,2.21,9.94,1.29,20.15-2.67,29.55l-.02.02Z"></path><path d="m211,205.81c-.07-.24-.14-.47-.22-.71-.12-.45-.27-.91-.43-1.37-3.84-10.47-14.25-16.89-26.52-16.34-12.17.54-21.77,7.83-24.47,18.55-.32,1.23.09,2.4,1.1,3.2,6.24,4.94,14.34,7.87,22.79,8.26.67.03,1.33.05,2.01.05,9.18,0,17.95-2.96,24.71-8.32,1.05-.83,1.44-2.08,1.02-3.32h0Zm-27.5,6.35c-6.78-.31-13.31-2.52-18.49-6.24,2.54-7.68,9.91-12.85,19.08-13.27,9.81-.45,18.12,4.6,21.15,12.85.05.14.1.29.15.44-6.1,4.39-13.82,6.59-21.88,6.22h0Z"></path><path d="m185.21,183.67v.69-.69s0,0,0,0Z"></path><path d="m196.04,159.95c-2.86-2.9-6.69-4.51-10.84-4.51-8.39,0-15.22,6.82-15.25,15.2-.02,4.08,1.57,7.92,4.44,10.81,2.88,2.89,6.71,4.49,10.8,4.5h.02c8.37,0,15.2-6.78,15.24-15.11.02-4.13-1.56-7.99-4.41-10.88h0Zm-10.82,24.42v-.69s0,0,0,0v.69Zm-.02-3.85c-2.63,0-5.1-1.03-6.96-2.89s-2.87-4.34-2.86-6.97c.02-5.4,4.42-9.79,9.82-9.79v-1.58l.02,1.58c2.65,0,5.11,1.03,6.95,2.89,1.84,1.87,2.85,4.38,2.85,7.06-.02,5.34-4.41,9.7-9.82,9.7h0Z"></path><path d="m267.26,248.49c-1.7,0-3.42-.45-4.98-1.4l-36.11-21.88,2.87-4.73,36.11,21.88c1.94,1.17,4.47.55,5.65-1.39,1.17-1.94.55-4.47-1.39-5.65l-36.11-21.88,2.87-4.73,36.11,21.88c4.55,2.75,6,8.7,3.25,13.24-1.82,2.99-5,4.65-8.26,4.65h0Z"></path><rect x="221.85" y="206.93" width="6.32" height="12" transform="translate(-75.54 288.03) rotate(-57.45)"></rect><polygon points="145.24 148.33 138.3 141.79 138.21 56.82 145.08 56.8 145.24 148.33"></polygon><path d="m192.97,59.88l-39.61.34.35,41.95,39.61-.34-.35-41.95Zm-33.3,36.23l-.25-29.93,27.58-.25.26,29.92-27.59.26Z"></path><polygon points="227.54 115.12 178.58 115.53 178.53 109.52 214.46 109.21 201.58 94.36 214.21 79.29 200.8 79.41 200.75 73.4 227.19 73.18 209.48 94.3 227.54 115.12"></polygon><rect x="55.94" y="210.48" width=".4" height="0"></rect></svg>