<svg xmlns="http://www.w3.org/2000/svg" viewBox="0 0 320 320"><path d="M241.74,226l-.08-38.28h5.82l.1,20.54,6.37-8.38a71.1,71.1,0,0,1,16.46-15.54l9.56-6.55H25.64l10,6.58a88.75,88.75,0,0,1,18.62,16.35l6.38,7.52-.1-20.52h5.79c.06,5.92.26,30.56,0,38.28H60.43c-.41-7-5.71-16.61-14-25.32-9.58-10-21.58-17.4-33.89-20.86V172H61.75l.59-2.86a93.47,93.47,0,0,1,183.29,0l.59,2.86H307.5v5.87c-28,.86-53.32,21.29-59.72,48.17ZM100,118.61A88.52,88.52,0,0,0,68.7,167.55l-1,4.41H240.3l-1-4.41A88.44,88.44,0,0,0,208,118.61l-5.78-4.54v48h-5.8v-51.2l-1.92-1a86.61,86.61,0,0,0-33.75-9.68l-3.84-.3V162h-5.81V99.88l-3.84.29a86.49,86.49,0,0,0-33.75,9.68l-1.92,1V162h-5.81v-48Z"></path></svg>