<svg id="a" xmlns="http://www.w3.org/2000/svg" viewBox="0 0 320 320"><path d="M226.07,78.04l-4.87,6.35c15.93,12.27,27.16,28.38,33.42,46.05h-79.73v-15.06c6.09-1.83,10.53-7.57,10.53-14.28,0-8.18-6.7-14.88-14.88-14.88s-14.88,6.7-14.88,14.88c0,6.7,4.44,12.36,10.53,14.28v23.76h90.79v-.96c2.26,8.53,3.39,17.32,3.39,26.11H119.79c-1.83-6.09-7.57-10.53-14.28-10.53-8.18,0-14.88,6.7-14.88,14.88s6.7,14.88,14.88,14.88c6.7,0,12.36-4.44,14.28-10.53h140.31c-.78,8.97-2.79,17.93-6.01,26.55h-87.91v24.46c-6.09,1.83-10.53,7.57-10.53,14.28,0,8.18,6.7,14.88,14.88,14.88s14.88-6.7,14.88-14.88c0-6.7-4.44-12.36-10.53-14.28v-15.75h75.38c-2.87,5.92-6.35,11.58-10.53,16.97-33.69,43.96-96.88,52.23-140.84,18.54-6.09-4.7-11.66-10.1-16.54-16.02l-6.18,5.05c5.22,6.35,11.23,12.19,17.84,17.32,19.67,15.06,42.91,22.37,65.89,22.37,32.55,0,64.85-14.62,86.17-42.39,36.38-47.53,27.42-115.68-20.02-152.07Zm-61.71,22.98c0-3.39,2.79-6.18,6.18-6.18s6.18,2.79,6.18,6.18-2.79,6.18-6.18,6.18-6.18-2.7-6.18-6.18Zm-58.84,73.81c-3.39,0-6.18-2.79-6.18-6.18s2.79-6.18,6.18-6.18,6.18,2.79,6.18,6.18-2.79,6.18-6.18,6.18Zm71.2,63.37c0,3.39-2.79,6.18-6.18,6.18s-6.18-2.79-6.18-6.18,2.79-6.18,6.18-6.18,6.18,2.79,6.18,6.18Z"></path><path d="M60.6,149.33l-7.92-1.13c-.78,5.22-1.13,10.53-1.13,15.75,0,14.97,3.05,29.51,8.88,43.17l7.31-3.13c-5.48-12.71-8.27-26.11-8.27-40.04,.09-4.87,.44-9.84,1.13-14.62Z"></path><path d="M191.25,60.11c-4-1.22-8.01-2.18-12.1-2.87l-1.39,7.83c3.74,.7,7.49,1.57,11.14,2.7l2.35-7.66Z"></path><path d="M158.26,63.6l-.17-8.01c-7.05,.17-14.1,.96-21.06,2.44l1.65,7.83c6.53-1.39,13.06-2.18,19.58-2.26Z"></path><path d="M120.05,71.86l-3.13-7.31c-6.53,2.79-12.71,6.27-18.54,10.27l4.53,6.53c5.4-3.74,11.14-6.96,17.15-9.49Z"></path><path d="M87.85,94.06l-5.74-5.57c-2.87,2.96-5.57,6.18-8.1,9.4-5.05,6.62-9.4,13.75-12.8,21.33l7.31,3.31c3.13-6.96,7.14-13.58,11.84-19.76,2.35-2.96,4.87-5.92,7.49-8.7Z"></path><polygon points="197 83.62 217.02 75.08 209.19 55.5 201.7 58.46 206.66 70.82 193.87 76.3 197 83.62"></polygon></svg>