<svg xmlns="http://www.w3.org/2000/svg" viewBox="0 0 512 512">
    <rect y="85.33" width="512" height="341.34" fill="#d80027"></rect>
    <polygon
        points="512 295.88 202.19 295.88 202.19 426.67 183.65 426.67 140.98 426.67 122.44 426.67 122.44 295.88 0 295.88 0 277.33 0 234.67 0 216.11 122.44 216.11 122.44 85.33 140.98 85.33 183.65 85.33 202.19 85.33 202.19 216.11 512 216.11 512 234.67 512 277.33 512 295.88"
        fill="#f0f0f0"></polygon>
    <polygon
        points="512 234.67 512 277.33 183.65 277.33 183.65 426.67 140.98 426.67 140.98 277.33 0 277.33 0 234.67 140.98 234.67 140.98 85.33 183.65 85.33 183.65 234.67 512 234.67"
        fill="#2e52b2"></polygon>
</svg>