<svg xmlns="http://www.w3.org/2000/svg" viewBox="0 0 512 512">
    <path
        d="M8.83,423.72H503.17A8.82,8.82,0,0,0,512,414.9V97.1a8.82,8.82,0,0,0-8.83-8.82H8.83A8.82,8.82,0,0,0,0,97.1V414.9A8.82,8.82,0,0,0,8.83,423.72Z"
        fill="#c8414b"></path>
    <rect y="158.9" width="512" height="194.21" fill="#ffd250"></rect>
    <path d="M216.28,256l7.48-33.68a5,5,0,0,0-4.85-6h-5.27a5,5,0,0,0-4.85,6Z" fill="#c8414b"></path>
    <rect x="207.45" y="238.34" width="17.65" height="75.03" fill="#f5f5f5"></rect>
    <rect x="203.03" y="229.52" width="26.48" height="8.83" fill="#fab446"></rect>
    <rect x="185.38" y="256" width="44.14" height="8.83" fill="#c8414b"></rect>
    <polygon points="229.52 291.31 203.03 282.48 203.03 273.66 229.52 282.48 229.52 291.31" fill="#c8414b"></polygon>
    <path d="M83.86,256l7.49-33.68a5,5,0,0,0-4.85-6H81.23a5,5,0,0,0-4.85,6Z" fill="#c8414b"></path>
    <path
        d="M114.76,229.52a8.83,8.83,0,0,0-8.83,8.83v57.37c0,10.73,10,30.9,44.14,30.9s44.14-20.17,44.14-30.9V238.35a8.83,8.83,0,0,0-8.83-8.83Z"
        fill="#f5f5f5"></path>
    <path d="M150.07,273.66H105.93V238.35a8.83,8.83,0,0,1,8.83-8.83h35.31Z" fill="#c8414b"></path>
    <path d="M150.07,273.66h44.14v22.06a22.07,22.07,0,0,1-22.07,22.07h0a22.07,22.07,0,0,1-22.07-22.07Z" fill="#c8414b">
    </path>
    <path d="M105.93,273.66h44.14v22.06A22.07,22.07,0,0,1,128,317.79h0a22.07,22.07,0,0,1-22.07-22.07Z" fill="#fab446">
    </path>
    <path d="M141.24,313.28V273.66h-8.83v43.69A21.86,21.86,0,0,0,141.24,313.28Z" fill="#c8414b"></path>
    <path d="M123.59,317.35V273.66h-8.83v39.62A21.86,21.86,0,0,0,123.59,317.35Z" fill="#c8414b"></path>
    <rect x="114.76" y="256" width="26.48" height="8.83" fill="#ffb441"></rect>
    <rect x="114.76" y="238.34" width="26.48" height="8.83" fill="#fab446"></rect>
    <rect x="119.17" y="243.59" width="17.65" height="15.99" fill="#fab446"></rect>
    <rect x="75.03" y="238.34" width="17.65" height="75.03" fill="#f5f5f5"></rect>
    <rect x="70.62" y="308.97" width="26.48" height="8.83" fill="#fab446"></rect>
    <rect x="70.62" y="229.52" width="26.48" height="8.83" fill="#fab446"></rect>
    <rect x="66.21" y="317.79" width="35.31" height="8.83" fill="#5064aa"></rect>
    <rect x="207.45" y="308.97" width="26.48" height="8.83" fill="#fab446"></rect>
    <rect x="198.62" y="317.79" width="35.31" height="8.83" fill="#5064aa"></rect>
    <rect x="123.59" y="220.69" width="52.97" height="8.83" fill="#fab446"></rect>
    <rect x="145.66" y="194.21" width="8.83" height="26.48" fill="#ffb441"></rect>
    <path
        d="M141.24,207.45a13.24,13.24,0,1,1,13.24-13.24A13.26,13.26,0,0,1,141.24,207.45Zm0-17.66a4.42,4.42,0,1,0,4.41,4.42A4.42,4.42,0,0,0,141.24,189.79Z"
        fill="#f5f5f5"></path>
    <path
        d="M158.9,207.45a13.24,13.24,0,1,1,13.24-13.24A13.25,13.25,0,0,1,158.9,207.45Zm0-17.66a4.42,4.42,0,1,0,4.41,4.42A4.42,4.42,0,0,0,158.9,189.79Z"
        fill="#f5f5f5"></path>
    <path
        d="M176.55,216.28A13.25,13.25,0,1,1,189.79,203,13.26,13.26,0,0,1,176.55,216.28Zm0-17.66A4.42,4.42,0,1,0,181,203,4.42,4.42,0,0,0,176.55,198.62Z"
        fill="#f5f5f5"></path>
    <path
        d="M123.59,216.28A13.25,13.25,0,1,1,136.83,203,13.26,13.26,0,0,1,123.59,216.28Zm0-17.66A4.42,4.42,0,1,0,128,203,4.42,4.42,0,0,0,123.59,198.62Z"
        fill="#f5f5f5"></path>
    <path
        d="M176.55,291.31v4.41a4.42,4.42,0,1,1-8.83,0v-4.41h8.83m8.83-8.83H158.9v13.24a13.24,13.24,0,1,0,26.48,0V282.48Z"
        fill="#fab446"></path>
    <path
        d="M172.14,264.83h0a8.83,8.83,0,0,1-8.83-8.83v-8.83a8.83,8.83,0,0,1,8.83-8.83h0a8.84,8.84,0,0,1,8.83,8.83V256A8.83,8.83,0,0,1,172.14,264.83Z"
        fill="#ffa0d2"></path>
    <circle cx="150.07" cy="273.65" r="13.24" fill="#5064aa"></circle>
    <rect x="145.66" y="176.55" width="8.83" height="26.48" fill="#fab446"></rect>
    <path
        d="M123.59,220.69l-8.83-8.83,5.17-5.17a42.62,42.62,0,0,1,30.14-12.48h0a42.65,42.65,0,0,1,30.14,12.48l5.17,5.17-8.83,8.83Z"
        fill="#c8414b"></path>
    <circle cx="150.07" cy="211.86" r="4.41" fill="#ffd250"></circle>
    <circle cx="132.41" cy="211.86" r="4.41" fill="#ffd250"></circle>
    <circle cx="167.72" cy="211.86" r="4.41" fill="#ffd250"></circle>
    <rect x="70.62" y="256" width="44.14" height="8.83" fill="#c8414b"></rect>
    <polygon points="70.62 291.31 97.1 282.48 97.1 273.66 70.62 282.48 70.62 291.31" fill="#c8414b"></polygon>
</svg>