<svg xmlns="http://www.w3.org/2000/svg" viewBox="0 0 512 512">
    <path
        d="M503.17,423.72H8.83A8.82,8.82,0,0,1,0,414.9V97.1a8.83,8.83,0,0,1,8.83-8.83H503.17A8.83,8.83,0,0,1,512,97.1V414.9A8.82,8.82,0,0,1,503.17,423.72Z"
        fill="#41479b"></path>
    <path
        d="M512,97.1a8.83,8.83,0,0,0-8.83-8.83H463.68L300.14,195.42V88.27H211.86V195.42L48.32,88.27H8.83A8.83,8.83,0,0,0,0,97.1v22.83l140.31,91.93H0v88.28H140.31L0,392.07V414.9a8.82,8.82,0,0,0,8.83,8.82H48.32L211.86,316.58V423.72h88.28V316.58L463.68,423.72h39.49A8.82,8.82,0,0,0,512,414.9V392.07L371.69,300.14H512V211.86H371.69L512,119.93Z"
        fill="#f5f5f5"></path>
    <polygon
        points="512 229.52 282.48 229.52 282.48 88.28 229.52 88.28 229.52 229.52 0 229.52 0 282.48 229.52 282.48 229.52 423.72 282.48 423.72 282.48 282.48 512 282.48 512 229.52"
        fill="#ff4b55"></polygon>
    <path d="M179,300.14.25,416.13a8.71,8.71,0,0,0,8.58,7.59H21l190.4-123.58Z" fill="#ff4b55"></path>
    <path d="M346.39,300.14H314l190.11,123.4a8.74,8.74,0,0,0,7.93-8.65v-7.25Z" fill="#ff4b55"></path>
    <path d="M0,106.85l161.78,105h32.43L5.14,89.14A8.77,8.77,0,0,0,0,97.1Z" fill="#ff4b55"></path>
    <path d="M332.57,211.86,511.69,95.58a8.7,8.7,0,0,0-8.52-7.3H490.52L300.14,211.86Z" fill="#ff4b55"></path>
</svg>