<svg id="svg-logo" xmlns="http://www.w3.org/2000/svg" viewBox="0 30 427.7 360"
    shape-rendering="geometricPrecision"
    text-rendering="geometricPrecision">
    <style>
        @keyframes eihiie3o5gu11_c_o {

        0%,
        80%,
        to {
        opacity: 0
        }

        20%,
        60% {
        opacity: 1
        }
        }

        @keyframes eihiie3o5gu11_s_do {
        0% {
        stroke-dashoffset: 500
        }

        80%,
        to {
        stroke-dashoffset: 1000
        }
        }

        @keyframes eihiie3o5gu13_c_o {

        0%,
        20%,
        to {
        opacity: 0
        }

        40%,
        80% {
        opacity: 1
        }
        }

        @keyframes eihiie3o5gu13_s_do {

        0%,
        20% {
        stroke-dashoffset: -600
        }

        to {
        stroke-dashoffset: -1000
        }
        }

        @keyframes eihiie3o5gu15_c_o {

        0%,
        8%,
        88%,
        to {
        opacity: 0
        }

        28%,
        68% {
        opacity: 1
        }
        }

        @keyframes eihiie3o5gu15_s_do {

        0%,
        8% {
        stroke-dashoffset: 800
        }

        88%,
        to {
        stroke-dashoffset: 1600
        }
        }

        @keyframes eihiie3o5gu18_c_o {

        0%,
        8%,
        to {
        opacity: 0
        }

        28%,
        84% {
        opacity: 1
        }
        }

        @keyframes eihiie3o5gu19_c_o {

        0%,
        to {
        opacity: 0
        }

        20%,
        80% {
        opacity: 1
        }
        }

        .active #svg-logo #eihiie3o5gu11,
        .active #svg-logo #eihiie3o5gu13,
        .active #svg-logo #eihiie3o5gu15 {
        animation-name: eihiie3o5gu11_c_o, eihiie3o5gu11_s_do;
        animation-duration: 2500ms;
        animation-fill-mode: forwards;
        animation-timing-function: linear;
        animation-direction: normal;
        animation-iteration-count: infinite
        }

        .active #svg-logo #eihiie3o5gu13,
        .active #svg-logo #eihiie3o5gu15 {
        animation-name: eihiie3o5gu13_c_o, eihiie3o5gu13_s_do
        }

        .active #svg-logo #eihiie3o5gu15 {
        animation-name: eihiie3o5gu15_c_o, eihiie3o5gu15_s_do
        }

        .active #svg-logo #eihiie3o5gu18 {
        animation: eihiie3o5gu18_c_o 2500ms linear infinite normal forwards
        }

        .active #svg-logo #eihiie3o5gu19 {
        animation: eihiie3o5gu19_c_o 2500ms linear infinite normal forwards
        }
    </style>
    <g id="eihiie3o5gu2">
        <path id="eihiie3o5gu3" fill="#FF5400" stroke="#FF5400" stroke-width="4"
            stroke-miterlimit="10"
            d="m108.3 341-5.7 12.7h135.5l-5-12.7z"></path>
    </g>
    <g id="eihiie3o5gu4">
        <path id="eihiie3o5gu5" fill="#FF5400" stroke="#FF5400" stroke-width="4"
            stroke-miterlimit="10"
            d="m39 196.4 17.4-26.3V81.6h58.7l6.3-12.6H43.7v97.3l-17.3 26.3v104.9L39 270.9z"></path>
    </g>
    <g id="eihiie3o5gu6">
        <path id="eihiie3o5gu7" fill="#FF5400" stroke="#FF5400" stroke-width="4"
            stroke-miterlimit="10"
            d="M317.8 81.6V69h-98.5l5.8 12.6z"></path>
    </g>
    <path id="eihiie3o5gu10" fill="none" stroke="#002F37" stroke-width="16.5" stroke-linecap="round"
        stroke-miterlimit="10" d="m87.6 209.3 65.3-158.5h30.8l97 231"></path>
    <path id="eihiie3o5gu11" opacity="0" fill="none" stroke="#FF5400" stroke-width="16.5"
        stroke-linecap="round"
        stroke-miterlimit="10" stroke-dashoffset="500" stroke-dasharray="500"
        d="M87.7 209.3 153 50.8h30.8l97 231">
    </path>
    <path id="eihiie3o5gu12"
        d="M134.5 209.3c11.9-29.1 23.9-56.2 35.8-85.3 15.9 36.6 30.9 76.1 46.8 112.7H77.7c-16.4 39.7-32.9 80.5-49.3 120.2h44.8c7.8-19 14.6-35.9 22.4-54.9"
        fill="none" stroke="#002F37" stroke-width="16.5" stroke-linecap="round"
        stroke-miterlimit="10"></path>
    <path id="eihiie3o5gu13"
        d="M134.5 209.5c11.9-29.1 23.9-56.2 35.8-85.3 15.9 36.6 30.9 76.1 46.8 112.7H77.7c-16.4 39.7-32.9 80.5-49.3 120.2h44.8c7.8-19 14.6-35.9 22.4-54.9"
        opacity="0" fill="none" stroke="#FF5400" stroke-width="16.5" stroke-linecap="round"
        stroke-miterlimit="10"
        stroke-dashoffset="-600" stroke-dasharray="500"></path>
    <path id="eihiie3o5gu14" fill="none" stroke="#002F37" stroke-width="16.5" stroke-linecap="round"
        stroke-miterlimit="10" d="M96.6 278.5h138.5l31.7 78.6h74.7V50.8h44.6v275.7"></path>
    <path id="eihiie3o5gu15" opacity="0" fill="none" stroke="#FF5400" stroke-width="16.5"
        stroke-linecap="round"
        stroke-miterlimit="10" stroke-dashoffset="800" stroke-dasharray="800"
        d="M96.6 278.5h138.5l31.7 78.6h74.7V50.8h44.6v275.7"></path>
    <path id="eihiie3o5gu16"
        d="M277 285.7c-8.5 8.1-10.6 20.9-5.2 31.1 6.8 12.8 22.7 17.6 35.4 10.9 12.8-6.8 17.6-22.7 10.9-35.4-5.3-10.2-17.1-15.6-28.6-13.2 0 0-2.3.3-6.9 2.7-4.6 2.4-5.6 3.9-5.6 3.9Zm30.8 12.2c3.7 7 1 15.6-6 19.3-7 3.7-15.6 1-19.3-6-3.7-7-1-15.6 6-19.3 6.8-3.6 15.6-1 19.3 6Z"
        fill="#002F37" stroke="#002F37" stroke-width="4" stroke-miterlimit="10"></path>
    <path id="eihiie3o5gu17"
        d="M367.88 327.78c-8.5 8.1-10.6 20.9-5.2 31.1 6.8 12.8 22.7 17.6 35.4 10.9 12.8-6.8 17.6-22.7 10.9-35.4-5.3-10.2-17.1-15.6-28.6-13.2 0 0-2.3.3-6.9 2.7-4.6 2.4-5.6 3.9-5.6 3.9Zm30.8 12.2c3.7 7 1 15.6-6 19.3-7 3.7-15.6 1-19.3-6-3.7-7-1-15.6 6-19.3 6.8-3.6 15.6-1 19.3 6Z"
        fill="#002F37" stroke="#002F37" stroke-width="4" stroke-miterlimit="10"></path>
    <path id="eihiie3o5gu18"
        d="M378.7 321.5c-11.3 3.2-19.1 13.5-19.1 25.1 0 14.5 11.8 26.2 26.2 26.2 14.5 0 26.2-11.8 26.2-26.2.1-11.5-7.8-21.8-19.1-25 0 0-2.2-.8-7.4-.8-5.1 0-6.8.7-6.8.7Zm21.5 25.2c0 7.9-6.4 14.3-14.3 14.3s-14.3-6.4-14.3-14.3 6.4-14.3 14.3-14.3c7.8 0 14.3 6.4 14.3 14.3Z"
        opacity="0" fill="#FF5400" stroke="#FF5400" stroke-width="4" stroke-miterlimit="10"></path>
    <path id="eihiie3o5gu19"
        d="M277 285.7c-8.5 8.1-10.6 20.9-5.2 31.1 6.8 12.8 22.7 17.6 35.4 10.9 12.8-6.8 17.6-22.7 10.9-35.4-5.3-10.2-17.1-15.6-28.6-13.2 0 0-2.3.3-6.9 2.7-4.6 2.4-5.6 3.9-5.6 3.9Zm30.8 12.2c3.7 7 1 15.6-6 19.3-7 3.7-15.6 1-19.3-6-3.7-7-1-15.6 6-19.3 6.8-3.6 15.6-1 19.3 6Z"
        opacity="0" fill="#FF5400" stroke="#FF5400" stroke-width="4" stroke-miterlimit="10"></path>
</svg>