<svg xmlns="http://www.w3.org/2000/svg" viewBox="0 0 800 1364">
    <style type="text/css">
        .st0 {
            fill: #8eb1b2;
        }

        .st1 {
            fill: #FFFFFF;
        }

        .st2 {
            fill: #ff5400;
        }

        .st3 {
            fill: #002f37;
        }
    </style>
    <g>
        <g>
            <polygon points="0 0 0 1148.58 400 1364 800 1148.58 800 0 0 0" className="st0"></polygon>
            <path
                d="M754.73,1218.89h-7.82v17.11h-7.15v-17.11h-7.75v-6.89h22.73v6.89Zm31.76,17.11h-7.15v-9.89l-5.41,9.63h-3.21l-5.41-9.63v9.89h-7.15v-24h6.08l8.09,14.51,8.09-14.51h6.08v24Z"
                className="st0"></path>
        </g>
        <g>
            <rect width="800" height="800" className="st2"></rect>
            <g>
                <path
                    d="M199.04,123.64v10.83c0,20.06-6.42,36.31-19.26,48.74-12.84,12.44-29.49,18.66-49.75,18.66-21.67,0-39.72-7.02-53.96-21.06-14.24-14.24-21.26-31.49-21.26-51.75s7.02-37.71,21.06-51.95c14.24-14.24,31.69-21.26,52.55-21.26,26.28,0,49.15,12.84,61.18,32.7l-23.67,13.64c-6.62-11.43-21.06-19.46-37.71-19.46-13.44,0-24.47,4.41-33.1,13.24-8.62,8.63-12.84,19.66-12.84,33.1s4.41,24.27,13.04,32.9c8.83,8.62,20.46,12.84,34.9,12.84,21.46,0,35.9-10.03,40.92-26.68h-42.52v-24.47h70.41Z"
                    fill="#fff"></path>
                <path
                    d="M240.49,116.02c4.57-12.84,16.01-19.26,28.97-19.26v28.89c-7.43-1-14.29,.6-20.2,4.82-5.91,4.21-8.77,11.03-8.77,20.66v47.94h-24.58V98.77h24.58v17.25Z"
                    fill="#fff"></path>
                <path
                    d="M310.98,159.55c3.41,12.64,12.84,18.86,28.28,18.86,9.83,0,17.45-3.41,22.47-10.03l20.86,12.03c-9.83,14.24-24.47,21.46-43.73,21.46-16.65,0-29.89-5.02-39.92-15.04-10.03-10.03-15.05-22.67-15.05-37.91s5.02-27.68,14.85-37.71c9.83-10.23,22.67-15.25,38.11-15.25,14.64,0,26.88,5.02,36.31,15.25,9.63,10.23,14.44,22.67,14.44,37.71,0,3.41-.4,6.82-1,10.63h-75.62Zm50.75-20.06c-3.01-13.64-13.04-20.26-24.87-20.26-13.84,0-23.27,7.42-26.28,20.26h51.15Z"
                    fill="#fff"></path>
                <path
                    d="M480.89,98.77h25.88v100.3h-25.88v-11.84c-7.82,9.83-18.65,14.64-32.7,14.64s-24.87-5.02-34.5-15.25c-9.43-10.23-14.24-22.87-14.24-37.71s4.82-27.28,14.24-37.51c9.63-10.23,21.06-15.45,34.5-15.45s24.87,4.81,32.7,14.64v-11.83Zm-27.88,78.43c8.03,0,14.64-2.61,19.86-7.82,5.41-5.42,8.02-12.24,8.02-20.46s-2.61-15.04-8.02-20.26c-5.22-5.42-11.83-8.02-19.86-8.02s-14.64,2.61-19.86,8.02c-5.22,5.22-7.82,12.04-7.82,20.26s2.61,15.04,7.82,20.46c5.21,5.21,11.83,7.82,19.86,7.82"
                    fill="#fff"></path>
                <path
                    d="M591.63,123.64h-22.67v41.72c0,10.83,7.82,11.03,22.67,10.23v23.47c-35.51,4.01-48.55-6.22-48.55-33.7v-41.72h-17.45v-24.87h17.45v-20.26l25.88-7.82v28.08h22.67v24.87Z"
                    fill="#fff"></path>
                <path
                    d="M125.63,235.01c13.44,0,24.87,4.61,34.1,13.64,9.23,9.03,13.84,20.26,13.84,33.5s-4.61,24.47-13.84,33.5c-9.23,9.03-20.66,13.64-34.1,13.64h-24.67v46.14h-27.68V235.01h52.36Zm0,68.4c11.83,0,20.46-9.23,20.46-21.26s-8.62-21.26-20.46-21.26h-24.67v42.52h24.67Z"
                    fill="#fff"></path>
                <rect x="192.43" y="236.31" width="25.88" height="139.12" fill="#fff"></rect>
                <path
                    d="M322.22,275.13h25.88v100.29h-25.88v-11.84c-7.82,9.83-18.65,14.64-32.7,14.64s-24.87-5.02-34.5-15.24c-9.43-10.23-14.24-22.87-14.24-37.71s4.81-27.28,14.24-37.51c9.63-10.23,21.06-15.45,34.5-15.45s24.87,4.81,32.7,14.64v-11.83Zm-27.88,78.43c8.03,0,14.64-2.61,19.86-7.82,5.41-5.42,8.02-12.24,8.02-20.46s-2.61-15.04-8.02-20.26c-5.22-5.42-11.83-8.02-19.86-8.02s-14.64,2.61-19.86,8.02c-5.22,5.22-7.82,12.04-7.82,20.26s2.61,15.04,7.82,20.46c5.21,5.21,11.84,7.82,19.86,7.82"
                    fill="#fff"></path>
                <path
                    d="M385.42,362.99c-10.03-10.23-15.05-22.67-15.05-37.71s5.02-27.48,15.05-37.71c10.23-10.23,22.87-15.24,37.91-15.24,19.46,0,36.71,10.03,44.93,25.88l-22.26,13.04c-4.01-8.22-12.64-13.44-22.87-13.44-15.44,0-26.88,11.43-26.88,27.48,0,7.82,2.61,14.44,7.62,19.66,5.01,5.01,11.43,7.62,19.26,7.62,10.43,0,19.06-5.02,23.07-13.24l22.47,12.84c-8.82,15.85-25.88,26.08-45.33,26.08-15.04,0-27.68-5.02-37.91-15.25"
                    fill="#fff"></path>
                <path
                    d="M509.99,335.91c3.41,12.64,12.84,18.86,28.28,18.86,9.83,0,17.45-3.41,22.47-10.03l20.86,12.03c-9.83,14.24-24.47,21.46-43.73,21.46-16.65,0-29.89-5.02-39.92-15.04-10.03-10.03-15.05-22.67-15.05-37.91s5.02-27.68,14.85-37.71c9.83-10.23,22.67-15.25,38.11-15.25,14.64,0,26.88,5.01,36.31,15.25,9.63,10.23,14.44,22.67,14.44,37.71,0,3.41-.4,6.82-1,10.63h-75.62Zm50.75-20.06c-3.01-13.64-13.04-20.26-24.87-20.26-13.84,0-23.27,7.42-26.28,20.26h51.15Z"
                    fill="#fff"></path>
                <polygon
                    points="158.12 418.38 158.12 443.54 120.21 443.54 120.21 551.78 92.53 551.78 92.53 443.54 54.81 443.54 54.81 418.38 158.12 418.38"
                    fill="#fff"></polygon>
                <path
                    d="M201.24,554.59c-14.84,0-27.48-5.02-37.71-15.25-10.23-10.23-15.25-22.87-15.25-37.71s5.02-27.28,15.25-37.51c10.23-10.23,22.87-15.45,37.71-15.45s27.48,5.21,37.71,15.45c10.23,10.23,15.45,22.67,15.45,37.51s-5.21,27.48-15.45,37.71c-10.23,10.23-22.87,15.25-37.71,15.25m0-25.28c7.82,0,14.24-2.61,19.46-7.82,5.21-5.22,7.82-11.84,7.82-19.86s-2.61-14.64-7.82-19.86c-5.22-5.21-11.63-7.82-19.46-7.82s-14.24,2.61-19.46,7.82c-5.02,5.22-7.62,11.83-7.62,19.86s2.61,14.64,7.62,19.86c5.21,5.21,11.63,7.82,19.46,7.82"
                    fill="#fff"></path>
                <polygon
                    points="97.93 736.35 58.61 595.93 87.69 595.93 114.57 700.04 143.86 595.93 167.53 595.93 197.02 700.04 223.9 595.93 252.98 595.93 213.67 736.35 182.17 736.35 155.69 643.67 129.42 736.35 97.93 736.35"
                    fill="#fff"></polygon>
                <path
                    d="M303.55,739.16c-14.84,0-27.48-5.02-37.71-15.25s-15.25-22.87-15.25-37.71,5.02-27.28,15.25-37.51c10.23-10.23,22.87-15.45,37.71-15.45s27.48,5.21,37.71,15.45c10.23,10.23,15.45,22.67,15.45,37.51s-5.21,27.48-15.45,37.71c-10.23,10.23-22.87,15.25-37.71,15.25m0-25.28c7.82,0,14.24-2.61,19.46-7.82,5.21-5.22,7.82-11.83,7.82-19.86s-2.61-14.64-7.82-19.86c-5.22-5.21-11.63-7.82-19.46-7.82s-14.24,2.61-19.46,7.82c-5.02,5.22-7.62,11.83-7.62,19.86s2.61,14.64,7.62,19.86c5.21,5.21,11.63,7.82,19.46,7.82"
                    fill="#fff"></path>
                <path
                    d="M400.84,653.3c4.81-12.84,16.85-19.26,30.49-19.26v28.89c-7.83-1-15.05,.6-21.27,4.82-6.22,4.21-9.23,11.03-9.23,20.66v47.94h-25.88v-100.3h25.88v17.25Z"
                    fill="#fff"></path>
                <polygon
                    points="542.87 736.35 512.78 736.35 476.27 690.81 476.27 736.35 450.4 736.35 450.4 595.93 476.27 595.93 476.27 680.18 510.77 636.05 541.66 636.05 501.35 685.6 542.87 736.35"
                    fill="#fff"></polygon>
                <path
                    d="M552.31,718.27c0-12.57,10.01-22.68,22.68-22.68s22.68,10.01,22.68,22.58-10.01,22.58-22.68,22.58-22.68-9.71-22.68-22.48m41.27-.1c0-11.14-7.77-18.9-18.59-18.9s-18.6,7.87-18.6,19,8.17,18.8,18.6,18.8,18.59-7.76,18.59-18.9m-26.36-11.44h7.87c5.21,0,8.58,2.15,8.58,6.74v.1c0,3.37-1.94,5.21-4.6,6.03l5.93,9.5h-5.11l-5.42-8.68h-2.35v8.68h-4.9v-22.37Zm7.77,10.32c2.55,0,3.88-1.12,3.88-3.27v-.1c0-2.35-1.43-3.17-3.88-3.17h-2.86v6.54h2.86Z"
                    fill="#fff"></path>
            </g>
        </g>
    </g>
    <g>
        <path
            d="M87.46,926.4c0-32.44,24.05-57.6,57.6-57.6,20.26,0,38.14,10.29,47.63,26.11l-18.83,10.92c-5.38-9.81-16.14-15.83-28.8-15.83-21.68,0-35.92,15.03-35.92,36.4s14.24,36.24,35.92,36.24c12.66,0,23.58-6.01,28.8-15.67l18.83,10.92c-9.34,15.83-27.22,26.11-47.63,26.11-33.55,0-57.6-25.32-57.6-57.6Z"
            className="st3"></path>
        <path
            d="M240.8,965.48c7.91,0,14.24-3.32,17.72-7.91l16.46,9.5c-7.44,10.76-19.31,16.93-34.5,16.93-26.59,0-43.36-18.2-43.36-41.78s16.93-41.78,41.78-41.78c23.42,0,40.04,18.52,40.04,41.78,0,3.01-.32,5.7-.79,8.39h-59.66c2.85,10.45,11.55,14.88,22.31,14.88Zm17.72-30.7c-2.53-11.39-11.08-15.98-19.62-15.98-10.92,0-18.36,5.86-20.73,15.98h40.35Z"
            className="st3"></path>
        <path
            d="M333.7,901.07v22.79c-10.6-1.27-24.05,3.48-24.05,20.1v37.82h-20.41v-79.13h20.41v13.61c4.11-10.76,14.08-15.19,24.05-15.19Z"
            className="st3"></path>
        <path
            d="M377.53,922.28v32.92c0,8.55,6.17,8.7,17.88,8.07v18.52c-28.64,3.17-38.3-5.22-38.3-26.59v-32.92h-13.77v-19.62h13.77v-15.98l20.41-6.17v22.16h17.88v19.62h-17.88Z"
            className="st3"></path>
        <path
            d="M408.23,880.66c0-6.8,5.7-12.66,12.5-12.66s12.66,5.86,12.66,12.66-5.7,12.5-12.66,12.5-12.5-5.7-12.5-12.5Zm2.37,22h20.41v79.13h-20.41v-79.13Z"
            className="st3"></path>
        <path
            d="M475.8,901.87v.79h16.78v19.62h-16.78v59.5h-20.41v-59.5h-11.39v-19.62h11.39v-.79c0-21.84,12.03-34.66,37.19-33.07v19.62c-10.6-.79-16.78,2.69-16.78,13.45Z"
            className="st3"></path>
        <path
            d="M503.02,880.66c0-6.8,5.7-12.66,12.5-12.66s12.66,5.86,12.66,12.66-5.7,12.5-12.66,12.5-12.5-5.7-12.5-12.5Zm2.37,22h20.41v79.13h-20.41v-79.13Z"
            className="st3"></path>
        <path
            d="M582.14,965.48c7.91,0,14.24-3.32,17.72-7.91l16.46,9.5c-7.44,10.76-19.31,16.93-34.5,16.93-26.59,0-43.36-18.2-43.36-41.78s16.93-41.78,41.78-41.78c23.42,0,40.04,18.52,40.04,41.78,0,3.01-.32,5.7-.79,8.39h-59.66c2.85,10.45,11.55,14.88,22.31,14.88Zm17.72-30.7c-2.53-11.39-11.08-15.98-19.62-15.98-10.92,0-18.36,5.86-20.73,15.98h40.35Z"
            className="st3"></path>
        <path
            d="M712.54,871.01v110.78h-20.41v-9.34c-5.7,7.28-14.08,11.55-25.64,11.55-21.21,0-38.61-18.2-38.61-41.78s17.41-41.78,38.61-41.78c11.55,0,19.94,4.27,25.64,11.55v-40.99h20.41Zm-20.41,71.21c0-13.29-9.34-22.31-21.84-22.31s-22,9.02-22,22.31,9.34,22.31,22,22.31,21.84-9.02,21.84-22.31Z"
            className="st3"></path>
    </g>
    <g>
        <text id="dateRange" x="50%" y="1113" text-anchor="middle" className="st3"
            style="font-size: 70px; font-family: Arial, Helvetica, sans-serif; font-weight: 700;">MAY 2023-MAY
            2024</text>
    </g>
    <g>
        <text id="countryName" x="50%" y="1235" text-anchor="middle" className="st3"
            style="font-size: 70px; font-family: Arial, Helvetica, sans-serif; font-weight: 700;">USA</text>
    </g>
</svg>