<svg viewBox="0 0 285 25" xmlns="http://www.w3.org/2000/svg">
    <path
        d="M91 21.22c2.15 0 3.17-.48 3.92-1.24a4 4 0 0 0 1.13-2.8 4 4 0 0 0-1.13-2.77c-.75-.75-1.77-1.23-3.92-1.23h-5.2v8zM89.92 9.94c1.92 0 2.74-.38 3.28-1a3 3 0 0 0 .8-2.08 3 3 0 0 0-.82-2.08c-.54-.62-1.36-1-3.28-1h-4.1v6.16zm-7.51 14.52V.54h8.13a6.84 6.84 0 0 1 4.92 1.67 6.18 6.18 0 0 1 2 4.55 6 6 0 0 1-1.9 4.24 7.05 7.05 0 0 1 1.3 11.82 7.62 7.62 0 0 1-5.23 1.61zm30.26-9.4h7.38l-3.69-8.88zm8.72 3.25H111.3l-2.49 6.15h-3.55L115.17.54h2.39l9.91 23.92h-3.56zm71.24 6.28l-8.46-8.46 2.41-2.42 6 6.05zm-21.76 0v-4.83L190.22.41l2.41 2.42zm8.46-18.13l-2.41 2.42-6-6.05 2.36-2.42zM136.48.54h3.42v23.92h-3.42zM143.31 21h8.56v3.42h-8.56zm-121.14-.64a12.17 12.17 0 0 1-9.29 4.44A12 12 0 0 1 .48 12.5 12 12 0 0 1 12.57.2a11.91 11.91 0 0 1 8.75 3.69L19 6.14a9.12 9.12 0 0 0-6.46-2.7 8.72 8.72 0 0 0-8.65 9.06 8.71 8.71 0 0 0 9 9.06 8.32 8.32 0 0 0 5.88-2.23v-6.15h-6.85V9.94h10.25zM30.84.54h3.42v23.92h-3.42zM37.67 21h8.56v3.42h-8.56zm0 0h8.56v3.42h-8.56zM62.59.2a12.3 12.3 0 1 0 12.3 12.3A12.31 12.31 0 0 0 62.59.2m0 3.24a8.93 8.93 0 0 1 8.88 9.06 8.89 8.89 0 1 1-17.77 0 8.93 8.93 0 0 1 8.89-9.06"
        fill="#f05825" />
    <path
        d="M283.52 14.41v1.11a2.24 2.24 0 0 1-.58.17 3.48 3.48 0 0 1-.73.07 2.54 2.54 0 0 1-.94-.17 1.3 1.3 0 0 1-.66-.59 2.3 2.3 0 0 1-.25-1.18v-3h-.79v-.67l.88-.48.43-1.26h.94V9.7h1.67v1.12h-1.69v3a.69.69 0 0 0 .74.77 2.59 2.59 0 0 0 .48 0c.16 0 .31-.07.45-.12zm-5.09-1.36h-3.88a1.74 1.74 0 0 0 .43 1.16 1.53 1.53 0 0 0 1.14.43 3.94 3.94 0 0 0 1-.12 5.41 5.41 0 0 0 .93-.32h.06v1.19a3.62 3.62 0 0 1-.91.31 5.23 5.23 0 0 1-1.12.1 3.31 3.31 0 0 1-1.55-.34 2.4 2.4 0 0 1-1.06-1 3.48 3.48 0 0 1-.38-1.7 3.25 3.25 0 0 1 .76-2.33 2.6 2.6 0 0 1 2-.81 2.52 2.52 0 0 1 1.9.72 2.74 2.74 0 0 1 .7 2zM275 11a1.52 1.52 0 0 0-.38 1H277a1.69 1.69 0 0 0-.3-.93 1.05 1.05 0 0 0-.89-.38 1.11 1.11 0 0 0-.81.31zm-3.48 2a1.71 1.71 0 0 0-.6-.56 6.51 6.51 0 0 0-.91-.43c-.34-.14-.62-.25-.81-.35a1.41 1.41 0 0 1-.39-.27.4.4 0 0 1-.1-.28c0-.32.28-.47.85-.47a2.61 2.61 0 0 1 .79.12c.26.08.53.18.8.29l.47-1.09a4.92 4.92 0 0 0-1-.33 4.85 4.85 0 0 0-1-.11 3.13 3.13 0 0 0-1.69.41 1.4 1.4 0 0 0-.65 1.24 1.63 1.63 0 0 0 .2.84 1.73 1.73 0 0 0 .58.56 8.3 8.3 0 0 0 .94.46 5.87 5.87 0 0 1 .85.4 1.12 1.12 0 0 1 .37.28.47.47 0 0 1 .09.28.5.5 0 0 1-.23.43 1.42 1.42 0 0 1-.79.17 4 4 0 0 1-1-.14 4.81 4.81 0 0 1-.95-.35h-.07v1.27a4.51 4.51 0 0 0 .86.27 5.55 5.55 0 0 0 1.07.09 3.13 3.13 0 0 0 1.84-.47 1.6 1.6 0 0 0 .66-1.39 1.58 1.58 0 0 0-.21-.8zm-5.8 0a1.8 1.8 0 0 0-.6-.56 7.8 7.8 0 0 0-.91-.43c-.35-.14-.62-.25-.82-.35a1.5 1.5 0 0 1-.38-.27.41.41 0 0 1-.11-.28c0-.32.28-.47.86-.47a2.66 2.66 0 0 1 .79.12c.26.08.52.18.8.29l.47-1.09a4.92 4.92 0 0 0-1-.33 5 5 0 0 0-1-.11 3.09 3.09 0 0 0-1.68.41 1.38 1.38 0 0 0-.65 1.24 1.63 1.63 0 0 0 .19.84 1.83 1.83 0 0 0 .58.56 7.74 7.74 0 0 0 1 .46 6.44 6.44 0 0 1 .85.4 1.4 1.4 0 0 1 .37.28.46.46 0 0 1 .08.28.48.48 0 0 1-.23.43 1.39 1.39 0 0 1-.78.17 4 4 0 0 1-1-.14 5.33 5.33 0 0 1-.95-.35h-.06v1.27a4.39 4.39 0 0 0 .87.27 5.37 5.37 0 0 0 1.06.09 3.14 3.14 0 0 0 1.85-.47 1.61 1.61 0 0 0 .65-1.39 1.57 1.57 0 0 0-.28-.8zm-5.15 2.6H259l-.69-2h-2.91l-.69 2.05h-1.57L256 7.8h1.65zm-4.06-5.27l-.67 1.94h2.06l-.65-1.94c0-.1-.08-.23-.13-.41s-.12-.36-.17-.54-.05-.21-.08-.3l-.1.35-.15.53c-.08.24-.11.36-.14.44zM249 13.05h-3.88a1.69 1.69 0 0 0 .43 1.16 1.51 1.51 0 0 0 1.14.43 3.81 3.81 0 0 0 1-.12 5.13 5.13 0 0 0 .93-.32h.06v1.19a3.76 3.76 0 0 1-.91.31 5.39 5.39 0 0 1-1.13.1 3.37 3.37 0 0 1-1.55-.34 2.46 2.46 0 0 1-1.06-1 3.48 3.48 0 0 1-.38-1.7 3.3 3.3 0 0 1 .76-2.33 2.61 2.61 0 0 1 2-.81 2.56 2.56 0 0 1 1.91.72 2.78 2.78 0 0 1 .7 2zm-3.47-2a1.57 1.57 0 0 0-.38 1h2.43a1.54 1.54 0 0 0-.3-.93 1 1 0 0 0-.89-.38 1.14 1.14 0 0 0-.91.26zm-3.66.65v4h-1l-.27-.8a2.49 2.49 0 0 1-.8.68 2.56 2.56 0 0 1-1.17.23 2 2 0 0 1-1.34-.46 1.75 1.75 0 0 1-.54-1.41 1.58 1.58 0 0 1 .69-1.4 4 4 0 0 1 1.96-.54h1v-.25a1 1 0 0 0-.25-.77 1.1 1.1 0 0 0-.73-.23 2.89 2.89 0 0 0-.84.12c-.27.09-.54.19-.81.31l-.45-1a4.52 4.52 0 0 1 1-.38 5.15 5.15 0 0 1 1.18-.14 2.66 2.66 0 0 1 1.76.51 2 2 0 0 1 .56 1.51zm-2.12 1.23a2.3 2.3 0 0 0-1.22.3.86.86 0 0 0-.33.71.66.66 0 0 0 .23.57 1 1 0 0 0 .62.17 1.51 1.51 0 0 0 1-.33 1.22 1.22 0 0 0 .39-1v-.46zm-3.94-3.26h-.61a1.78 1.78 0 0 0-1.08.34 2.43 2.43 0 0 0-.71.79l-.2-1H232v6h1.45v-3.22a1.67 1.67 0 0 1 .23-.92 1.37 1.37 0 0 1 .59-.53 1.84 1.84 0 0 1 .8-.18h.52l.13-1.36zM229.15 9a.91.91 0 0 0 .56-.17.69.69 0 0 0 .25-.6.67.67 0 0 0-.25-.59 1 1 0 0 0-.56-.17.93.93 0 0 0-.56.17.67.67 0 0 0-.24.59.69.69 0 0 0 .24.6.87.87 0 0 0 .56.17zm-.73 6.71h1.46v-6h-1.46zm-4.28-7.84L222 13.89l-2-6h-2v7.84h1.34v-4.12-.86-.86-.42l2.07 6.17h1.3l2.17-6.22V15.64h1.42V7.83zM210 15.65l-.3.77a2.17 2.17 0 0 1-.49.75 1.12 1.12 0 0 1-.8.28h-.36l-.28-.05v.76a1.39 1.39 0 0 0 .33.06 3 3 0 0 0 .46 0 1.75 1.75 0 0 0 1.32-.49 3.69 3.69 0 0 0 .79-1.31l2.51-6.62h-1L211 13.11l-.3.88c-.09.3-.16.53-.2.71a4.85 4.85 0 0 0-.19-.75c-.09-.26-.18-.53-.29-.83l-1.26-3.31h-1zm-8.38-8.27v8.25h.69l.19-.74h.08a2.11 2.11 0 0 0 .68.6 2.3 2.3 0 0 0 1.12.24 2.18 2.18 0 0 0 1.74-.76 3.32 3.32 0 0 0 .66-2.25 3.32 3.32 0 0 0-.66-2.25 2.46 2.46 0 0 0-2.82-.47 2 2 0 0 0-.68.62h-.06a4.8 4.8 0 0 0 0-.51V7.43zm4.17 5.33a3.07 3.07 0 0 1-.38 1.66 1.32 1.32 0 0 1-1.17.57 1.42 1.42 0 0 1-1.31-.57 3.2 3.2 0 0 1-.35-1.64A3.07 3.07 0 0 1 203 11a1.42 1.42 0 0 1 1.29-.54c1.02.04 1.54.78 1.54 2.25z"
        fill="#ffffff" />
</svg>