<svg xmlns="http://www.w3.org/2000/svg" viewBox="0 0 20 20" width="20" height="20">
    <path
        d="M9.86,1.75c2.67,0,3,0,4,.06a5.34,5.34,0,0,1,1.85.34,3,3,0,0,1,1.15.75,3.06,3.06,0,0,1,.75,1.15A5.52,5.52,0,0,1,18,5.9c0,1.06.06,1.37.06,4s0,3-.06,4.05a5.52,5.52,0,0,1-.35,1.85,3.28,3.28,0,0,1-1.89,1.9,5.6,5.6,0,0,1-1.86.35c-1.05,0-1.37.05-4,.05s-3,0-4-.05A5.54,5.54,0,0,1,4,17.74,3.25,3.25,0,0,1,2.81,17a3.37,3.37,0,0,1-.75-1.15A5.73,5.73,0,0,1,1.72,14c-.05-1.06-.06-1.37-.06-4s0-3,.06-4a5.61,5.61,0,0,1,.34-1.86A3.06,3.06,0,0,1,2.81,2.9,3.06,3.06,0,0,1,4,2.15a5.34,5.34,0,0,1,1.85-.34C6.87,1.76,7.18,1.75,9.86,1.75Zm0-1.8C7.14,0,6.8,0,5.73,0A7.23,7.23,0,0,0,3.31.47,4.89,4.89,0,0,0,1.53,1.63,4.85,4.85,0,0,0,.37,3.4,7.52,7.52,0,0,0-.09,5.82C-.14,6.9-.15,7.24-.15,10s0,3.06.06,4.13A7.52,7.52,0,0,0,.37,16.5a5,5,0,0,0,1.16,1.78A4.91,4.91,0,0,0,3.3,19.43a7.35,7.35,0,0,0,2.43.47c1.07,0,1.41.05,4.12.05s3.06,0,4.13-.05a7.23,7.23,0,0,0,2.42-.47,4.82,4.82,0,0,0,1.77-1.15,5,5,0,0,0,1.16-1.77,7.65,7.65,0,0,0,.46-2.43c.05-1.07.06-1.41.06-4.12s0-3.06-.06-4.13a7.52,7.52,0,0,0-.46-2.42,4.66,4.66,0,0,0-1.15-1.78A4.85,4.85,0,0,0,16.41.47,7.59,7.59,0,0,0,14,0C12.91,0,12.57,0,9.86,0Z">
    </path>
    <path
        d="M9.86,4.81A5.14,5.14,0,1,0,15,10,5.14,5.14,0,0,0,9.86,4.81Zm0,8.48A3.34,3.34,0,1,1,13.19,10a3.34,3.34,0,0,1-3.33,3.34Z">
    </path>
    <path d="M16.4,4.61a1.2,1.2,0,1,1-1.2-1.2A1.2,1.2,0,0,1,16.4,4.61Z"></path>
</svg>