<svg xmlns="http://www.w3.org/2000/svg" viewBox="0 0 24 24" aria-hidden="true"><path d="M19.3 19.12h-3.17V14c0-1.28-.46-2.16-1.61-2.16A1.72 1.72 0 0 0 12.9 13a2 2 0 0 0-.11.77v5.33H9.62V9.56h3.17v1.35a3.15 3.15 0 0 1 2.86-1.57c2.09 0 3.65 1.36 3.65 4.29v5.47zM6.28 8.28a1.64 1.64 0 0 1-1.77-1.65A1.65 1.65 0 0 1 6.3 5a1.65 1.65 0 1 1 0 3.3zM4.69 19.12h3.17V9.58H4.69zM21 1.43H3.05A1.53 1.53 0 0 0 1.5 3v18.1a1.53 1.53 0 0 0 1.55 1.52H21a1.53 1.53 0 0 0 1.55-1.52V3A1.53 1.53 0 0 0 21 1.43z" fill-rule="evenodd"/></svg>