<svg xmlns="http://www.w3.org/2000/svg" viewBox="0 0 16 18"><path d="M14.15.18H6a.39.39,0,0,0-.29.13l-5.51,6a.37.37,0,0,0-.11.28v9.5a1.72,1.72,0,0,0,1.74,1.69h12.3a1.72,1.72,0,0,0,1.74-1.69V1.87A1.71,1.71,0,0,0,14.15.18Zm.94,16a.91.91,0,0,1-.94.86H1.85a.91.91,0,0,1-.94-.86V6.79L6.19,1h8a.91.91,0,0,1,.94.87ZM4.52,7.25H2.15a.4.4,0,0,1-.41-.4.41.41,0,0,1,.41-.41H4.52A1.42,1.42,0,0,0,6,5V2.18a.4.4,0,0,1,.4-.4.41.41,0,0,1,.41.4V5A2.24,2.24,0,0,1,4.52,7.25Zm7,3.81A17,17,0,0,1,8.65,7.73c.19-.66.3-1.1.3-1.12s0-.05,0-.09C9,5.27,8.23,5.2,8.08,5.2a.87.87,0,0,0-.7.38c-.31.48-.18,1.21.39,2.24A16.92,16.92,0,0,1,6,12.07a8.51,8.51,0,0,0-1.14.5C4,13,3.29,13.39,3.19,14a.79.79,0,0,0,.24.65.87.87,0,0,0,.57.22c.7,0,1.47-.81,2.19-1.68L6.28,13l.22-.27a18.24,18.24,0,0,1,4.05-.9,3,3,0,0,1,.62,0c1.2,1,1.67,1,1.82,1h0a.67.67,0,0,0,.52-.22.75.75,0,0,0,.18-.83C13.62,11.67,13.41,11.17,11.48,11.06ZM4.06,14a2,2,0,0,1,.64-.44C4.37,13.87,4.19,14,4.06,14Zm4-8a1,1,0,0,1,.07.42.68.68,0,0,1,0,.15A1,1,0,0,1,8.05,6ZM7.16,11.7A19.41,19.41,0,0,0,8.34,8.76a19.09,19.09,0,0,0,2,2.32A16.24,16.24,0,0,0,7.16,11.7Zm5.83.77v-.4h0Z"/></svg>