<svg xmlns="http://www.w3.org/2000/svg" viewBox="0 0 120 120" width="120" height="120">
    <path id="play-up"
        d="M115 53.52L11.42 1.68A6.42 6.42 0 0 0 8.18 1 7.12 7.12 0 0 0 1 8.16v103.68A7.21 7.21 0 0 0 8.18 119a9 9 0 0 0 3.24-.7l103.69-51.82c5.21-2.82 5.21-10.42-.11-12.96zm-1.16 10.28L10.16 115.65a4.5 4.5 0 0 1-2 .42 4.38 4.38 0 0 1-4.37-4.37V8a4.38 4.38 0 0 1 4.39-4.35 5 5 0 0 1 2 .42l103.66 51.84a4.15 4.15 0 0 1 2.39 3.8 4.68 4.68 0 0 1-2.39 4.09z">
    </path>
    <path id="play-over"
        d="M115 53.52L11.42 1.68A6.42 6.42 0 0 0 8.18 1 7.12 7.12 0 0 0 1 8.16v103.68A7.21 7.21 0 0 0 8.18 119a9 9 0 0 0 3.24-.7l103.69-51.82c5.21-2.82 5.21-10.42-.14-13">
    </path>
</svg>