<svg xmlns="http://www.w3.org/2000/svg" viewBox="0 0 20 20" width="20" height="20">
    <path
        d="M10.63,0h3.26a5.22,5.22,0,0,0,1.46,3.47A5.83,5.83,0,0,0,18.88,5V8.33a8.83,8.83,0,0,1-3.5-.81A10.65,10.65,0,0,1,14,6.75c0,2.43,0,4.86,0,7.29a6.34,6.34,0,0,1-1.13,3.28A6.22,6.22,0,0,1,8,20a6.1,6.1,0,0,1-3.4-.86,6.29,6.29,0,0,1-3.05-4.76c0-.42,0-.83,0-1.24A6.28,6.28,0,0,1,8.79,7.57c0,1.24,0,2.47,0,3.7A2.86,2.86,0,0,0,5.11,13,3.18,3.18,0,0,0,5,14.38a2.85,2.85,0,0,0,5.23,1,2,2,0,0,0,.34-.88c.08-1.49,0-3,.06-4.47,0-3.36,0-6.71,0-10.06Z">
    </path>
</svg>