<svg xmlns="http://www.w3.org/2000/svg" viewBox="0 0 20 20" width="20" height="20">
    <path
        d="M19.9,3.83a8,8,0,0,1-2.34.64,4.07,4.07,0,0,0,1.79-2.26,8,8,0,0,1-2.59,1,4.1,4.1,0,0,0-7,3.73A11.58,11.58,0,0,1,1.39,2.66,4.1,4.1,0,0,0,2.65,8.11,4.2,4.2,0,0,1,.8,7.6v.05a4.08,4.08,0,0,0,3.28,4A4.2,4.2,0,0,1,3,11.8a4,4,0,0,1-.77-.08,4.12,4.12,0,0,0,3.82,2.84A8.23,8.23,0,0,1,1,16.31a7.93,7.93,0,0,1-1-.06,11.57,11.57,0,0,0,6.26,1.83A11.54,11.54,0,0,0,17.88,6.47c0-.18,0-.36,0-.53a8.19,8.19,0,0,0,2-2.11Z">
    </path>
</svg>