<svg xmlns="http://www.w3.org/2000/svg" viewBox="0 0 20 20" width="20" height="20">
    <path
        d="M19.9,6a4.31,4.31,0,0,0-.8-2,2.86,2.86,0,0,0-2-.85c-2.8-.2-7-.2-7-.2h0s-4.2,0-7,.2a2.88,2.88,0,0,0-2,.85A4.26,4.26,0,0,0,.3,6,30.31,30.31,0,0,0,.1,9.19v1.52a30.24,30.24,0,0,0,.2,3.23,4.32,4.32,0,0,0,.79,2,3.34,3.34,0,0,0,2.21.85c1.6.16,6.8.2,6.8.2s4.2,0,7-.2a2.86,2.86,0,0,0,2-.85,4.26,4.26,0,0,0,.8-2,30,30,0,0,0,.2-3.23V9.19A30.31,30.31,0,0,0,19.9,6ZM8,12.55V6.92l5.4,2.82L8,12.55Z">
    </path>
</svg>